# xmcd CD database file
#
# Track frame offsets:
#	150
#	23122
#	62882
#	85820
#	111225
#	130267
#	149907
#	173607
#	192477
#	207587
#
# Disc length: 3391 seconds
#
# Revision: 0
# Processed by: cddbd v1.5.1PL2 Copyright (c) Steve Scherf et al.
# Submitted via: CDex 1.51
#
DISCID=990d3d0a
DTITLE=Radovan, Christian - Pulse of life
DYEAR=1991
DGENRE=Jazz
TTITLE0=Pulse ofl life
TTITLE1=Gabriela
TTITLE2=Strop
TTITLE3=Little Devil
TTITLE4=Voices
TTITLE5=Secret heartbeat
TTITLE6=Touch brazil
TTITLE7=Hex
TTITLE8=Pale
TTITLE9=Prima vera
EXTD=YEAR: 1991
EXTT0=
EXTT1=
EXTT2=
EXTT3=
EXTT4=
EXTT5=
EXTT6=
EXTT7=
EXTT8=
EXTT9=
PLAYORDER=
